# xmcd
#
# Track frame offsets: 
#        150
#        17282
#        34215
#        51800
#        69807
#        96834
#        117581
#        130469
#        149679
#        165975
#        179249
#        197510
#        213387
#        227195
#        239008
#        252870
#        269330
#        287890
#        300111
#        308379
#
# Disc length: 4378 seconds
#
# Revision: 0
# Processed by: cddbd v1.5.2PL0 Copyright (c) Steve Scherf et al.
# Submitted via: ExactAudioCopy v0.99pb4
#
DISCID=1f111814
DTITLE=Various Artist - 100 Hits Love (The Ultimate Collection) [CD5)
DYEAR=2008
DGENRE=Pop
TTITLE0=Joe Cocker and Jennifer Warnes - Up Where We Belong
TTITLE1=Maria Mckee - Show Me Heaven
TTITLE2=Bangles - Eternal Flame
TTITLE3=Cyndi Lauper - Time After Time
TTITLE4=10cc - I'M Not In Love
TTITLE5=Oleta Adams - Get Here
TTITLE6=Alison Moyet - Love Letters
TTITLE7=Michael Bolton - How Am I Supposed To Live Without You
TTITLE8=Rita Coolidge - We'Re All Alone
TTITLE9=Jimmy Ruffin - What Becomes Of The Brokenhearted?
TTITLE10=Air Supply - All Out Of Love
TTITLE11=ABC - The Look Of Love
TTITLE12=Kirsty Maccoll - They Don'T Know
TTITLE13=Tracey Ullman - Move Over Darling
TTITLE14=Donny Osmond - Puppy Love
TTITLE15=Demis Roussos - Forever And Ever
TTITLE16=Chris De Burgh - Lady In Red
TTITLE17=Brian Hyland - Sealed With A Kiss
TTITLE18=Michael Bublu - Guess I'M Falling 4 U
TTITLE19=Rachel Morrison - Have I Told You Lately
EXTD=
EXTT0=
EXTT1=
EXTT2=
EXTT3=
EXTT4=
EXTT5=
EXTT6=
EXTT7=
EXTT8=
EXTT9=
EXTT10=
EXTT11=
EXTT12=
EXTT13=
EXTT14=
EXTT15=
EXTT16=
EXTT17=
EXTT18=
EXTT19=
PLAYORDER=
